<svg width="25" height="24" viewBox="0 0 25 24" fill="none" xmlns="http://www.w3.org/2000/svg">
<path opacity="0.4" d="M2.66663 4C2.66663 2.89543 3.56206 2 4.66663 2H12.6666C13.7712 2 14.6666 2.89543 14.6666 4V8C14.6666 9.10457 13.7712 10 12.6666 10H4.66663C3.56206 10 2.66663 9.10457 2.66663 8V4Z" fill="#404A39"/>
<path opacity="0.4" d="M10.6666 16C10.6666 14.8954 11.5621 14 12.6666 14H20.6666C21.7712 14 22.6666 14.8954 22.6666 16V20C22.6666 21.1046 21.7712 22 20.6666 22H12.6666C11.5621 22 10.6666 21.1046 10.6666 20V16Z" fill="#404A39"/>
<path fill-rule="evenodd" clip-rule="evenodd" d="M21.2702 6.75L20.5505 7.46967C20.2576 7.76256 20.2576 8.23744 20.5505 8.53033C20.8434 8.82322 21.3183 8.82322 21.6112 8.53033L22.9041 7.23744C23.5875 6.55402 23.5875 5.44598 22.9041 4.76256L21.6112 3.46967C21.3183 3.17678 20.8434 3.17678 20.5505 3.46967C20.2576 3.76256 20.2576 4.23744 20.5505 4.53033L21.2702 5.25L16.6666 5.25C16.2524 5.25 15.9166 5.58579 15.9166 6C15.9166 6.41421 16.2524 6.75 16.6666 6.75L21.2702 6.75Z" fill="#404A39"/>
<path fill-rule="evenodd" clip-rule="evenodd" d="M4.06307 18.75L4.78274 19.4697C5.07564 19.7626 5.07564 20.2374 4.78274 20.5303C4.48985 20.8232 4.01498 20.8232 3.72208 20.5303L2.42919 19.2374C1.74577 18.554 1.74577 17.446 2.42919 16.7626L3.72208 15.4697C4.01498 15.1768 4.48985 15.1768 4.78274 15.4697C5.07564 15.7626 5.07564 16.2374 4.78274 16.5303L4.06307 17.25L8.66663 17.25C9.08084 17.25 9.41663 17.5858 9.41663 18C9.41663 18.4142 9.08084 18.75 8.66663 18.75L4.06307 18.75Z" fill="#404A39"/>
</svg>
