<svg width="25" height="24" viewBox="0 0 25 24" fill="none" xmlns="http://www.w3.org/2000/svg">
<circle opacity="0.4" cx="7.83331" cy="8.5" r="2.5" fill="#404A39"/>
<circle opacity="0.4" cx="16.8333" cy="8.5" r="2.5" fill="#404A39"/>
<ellipse opacity="0.4" cx="12.3333" cy="16" rx="6" ry="3" fill="#404A39"/>
<path fill-rule="evenodd" clip-rule="evenodd" d="M16.8279 17.9874C17.7646 17.4582 18.3332 16.7623 18.3332 16C18.3332 14.813 16.9545 13.7871 14.9542 13.3006C15.6616 13.1089 16.472 13 17.3332 13C20.0947 13 22.3332 14.1193 22.3332 15.5C22.3332 16.8807 20.0947 18 17.3332 18C17.1627 18 16.9941 17.9957 16.8279 17.9874Z" fill="#404A39"/>
<path fill-rule="evenodd" clip-rule="evenodd" d="M7.83865 17.9874C7.67247 17.9957 7.50389 18 7.33331 18C4.57189 18 2.33331 16.8807 2.33331 15.5C2.33331 14.1193 4.57189 13 7.33331 13C8.19455 13 9.00493 13.1089 9.7124 13.3006C7.71201 13.7871 6.33331 14.813 6.33331 16C6.33331 16.7623 6.90193 17.4582 7.83865 17.9874Z" fill="#404A39"/>
<circle cx="12.3333" cy="8" r="3" fill="#404A39"/>
</svg>
